G04*
G04 #@! TF.GenerationSoftware,Altium Limited,Altium Designer,24.6.1 (21)*
G04*
G04 Layer_Color=8388736*
%FSLAX44Y44*%
%MOMM*%
G71*
G04*
G04 #@! TF.SameCoordinates,FB7811C6-C1BC-4142-BEB3-519EFFB23591*
G04*
G04*
G04 #@! TF.FilePolarity,Negative*
G04*
G01*
G75*
%ADD16R,1.3970X0.2794*%
%ADD17C,1.6031*%
%ADD18R,1.6000X1.0500*%
%ADD19R,2.6062X1.7029*%
%ADD20R,1.7062X1.1546*%
%ADD21R,1.7029X2.6062*%
%ADD22R,1.0500X1.6000*%
%ADD24R,1.6510X2.8448*%
%ADD25C,2.0320*%
%ADD26R,1.7112X1.7112*%
%ADD27C,1.7112*%
%ADD28C,0.2032*%
%ADD29C,0.9032*%
%ADD30C,0.7032*%
G36*
X291344Y285719D02*
X276344D01*
Y293219D01*
X261344D01*
Y308219D01*
X276344D01*
Y315719D01*
X291344D01*
Y285719D01*
D02*
G37*
G36*
X321344Y308219D02*
X336344D01*
Y293219D01*
X321344D01*
Y285719D01*
X306344D01*
Y315719D01*
X321344D01*
Y308219D01*
D02*
G37*
D16*
X321844Y237500D02*
D03*
Y232500D02*
D03*
Y227500D02*
D03*
Y222500D02*
D03*
Y217500D02*
D03*
Y212500D02*
D03*
Y207500D02*
D03*
Y202500D02*
D03*
X278156Y202500D02*
D03*
Y207500D02*
D03*
Y212500D02*
D03*
Y217500D02*
D03*
Y222500D02*
D03*
Y227500D02*
D03*
Y232500D02*
D03*
Y237500D02*
D03*
D17*
X315250Y300250D02*
D03*
X282437Y301187D02*
D03*
D18*
X355000Y279250D02*
D03*
Y249750D02*
D03*
D19*
X367500Y218500D02*
D03*
Y197488D02*
D03*
D20*
X256500Y165242D02*
D03*
Y190758D02*
D03*
D21*
X245750Y225250D02*
D03*
X224738D02*
D03*
D22*
X249250Y268000D02*
D03*
X278750D02*
D03*
D24*
X300000Y220000D02*
D03*
D25*
X581660Y381390D02*
D03*
X29000Y40640D02*
D03*
X581660D02*
D03*
Y381390D02*
D03*
Y40640D02*
D03*
X29000D02*
D03*
D26*
X500000Y185000D02*
D03*
X60000Y240000D02*
D03*
D27*
X550000Y220000D02*
D03*
X500000Y255000D02*
D03*
X550000Y290000D02*
D03*
X60000Y205000D02*
D03*
D28*
X510000Y375000D02*
D03*
X110000Y55000D02*
D03*
X510000D02*
D03*
X110000Y375000D02*
D03*
D29*
X274250Y151250D02*
D03*
X288750Y247000D02*
D03*
X210000Y202500D02*
D03*
X223750Y202250D02*
D03*
X274500Y165250D02*
D03*
X393250Y197500D02*
D03*
X393500Y185500D02*
D03*
D30*
X299750Y212250D02*
D03*
Y226000D02*
D03*
M02*
