G04*
G04 #@! TF.GenerationSoftware,Altium Limited,Altium Designer,24.6.1 (21)*
G04*
G04 Layer_Color=2752767*
%FSLAX44Y44*%
%MOMM*%
G71*
G04*
G04 #@! TF.SameCoordinates,FB7811C6-C1BC-4142-BEB3-519EFFB23591*
G04*
G04*
G04 #@! TF.FilePolarity,Positive*
G04*
G01*
G75*
%ADD11C,0.1270*%
%ADD36C,0.1693*%
D11*
X494920Y179920D02*
Y190080D01*
X505080D01*
Y179920D01*
X494920D01*
X544920Y214920D02*
Y225080D01*
X555080D01*
Y214920D01*
X544920D01*
X494920Y249920D02*
Y260080D01*
X505080D01*
Y249920D01*
X494920D01*
X544920Y284920D02*
Y295080D01*
X555080D01*
Y284920D01*
X544920D01*
X54920Y234920D02*
Y245080D01*
X65080D01*
Y234920D01*
X54920D01*
Y199920D02*
Y210080D01*
X65080D01*
Y199920D01*
X54920D01*
X274250Y146170D02*
X269170Y156330D01*
X279330D01*
X274250Y146170D01*
X288750Y241920D02*
X283670Y252080D01*
X293830D01*
X288750Y241920D01*
X210000Y197420D02*
X204920Y207580D01*
X215080D01*
X210000Y197420D01*
X299750Y207170D02*
X302290Y209710D01*
X304830D01*
X302290Y212250D01*
X304830Y214790D01*
X302290D01*
X299750Y217330D01*
X297210Y214790D01*
X294670D01*
X297210Y212250D01*
X294670Y209710D01*
X297210D01*
X299750Y207170D01*
Y220920D02*
X302290Y223460D01*
X304830D01*
X302290Y226000D01*
X304830Y228540D01*
X302290D01*
X299750Y231080D01*
X297210Y228540D01*
X294670D01*
X297210Y226000D01*
X294670Y223460D01*
X297210D01*
X299750Y220920D01*
X223750Y197170D02*
X218670Y207330D01*
X228830D01*
X223750Y197170D01*
X274500Y160170D02*
X269420Y170330D01*
X279580D01*
X274500Y160170D01*
X393250Y192420D02*
X388170Y202580D01*
X398330D01*
X393250Y192420D01*
X393500Y180420D02*
X388420Y190580D01*
X398580D01*
X393500Y180420D01*
D36*
X515080Y375000D02*
G03*
X515080Y375000I-5080J0D01*
G01*
X115080Y55000D02*
G03*
X115080Y55000I-5080J0D01*
G01*
X515080D02*
G03*
X515080Y55000I-5080J0D01*
G01*
X115080Y375000D02*
G03*
X115080Y375000I-5080J0D01*
G01*
M02*
