G04*
G04 #@! TF.GenerationSoftware,Altium Limited,Altium Designer,24.6.1 (21)*
G04*
G04 Layer_Color=8421504*
%FSLAX44Y44*%
%MOMM*%
G71*
G04*
G04 #@! TF.SameCoordinates,FB7811C6-C1BC-4142-BEB3-519EFFB23591*
G04*
G04*
G04 #@! TF.FilePolarity,Positive*
G04*
G01*
G75*
%ADD16R,1.3970X0.2794*%
%ADD17C,1.6031*%
%ADD18R,1.6000X1.0500*%
%ADD19R,2.6062X1.7029*%
%ADD20R,1.7062X1.1546*%
%ADD21R,1.7029X2.6062*%
%ADD22R,1.0500X1.6000*%
%ADD23C,1.0160*%
G36*
X321344Y308219D02*
X336344D01*
Y293219D01*
X321344D01*
Y285719D01*
X306344D01*
Y315719D01*
X321344D01*
Y308219D01*
D02*
G37*
G36*
X291344Y285719D02*
X276344D01*
Y293219D01*
X261344D01*
Y308219D01*
X276344D01*
Y315719D01*
X291344D01*
Y285719D01*
D02*
G37*
G36*
X307255Y221000D02*
X292745D01*
Y233224D01*
X307255D01*
Y221000D01*
D02*
G37*
G36*
Y206776D02*
X292745D01*
Y219000D01*
X307255D01*
Y206776D01*
D02*
G37*
D16*
X321844Y237500D02*
D03*
Y232500D02*
D03*
Y227500D02*
D03*
Y222500D02*
D03*
Y217500D02*
D03*
Y212500D02*
D03*
Y207500D02*
D03*
Y202500D02*
D03*
X278156Y202500D02*
D03*
Y207500D02*
D03*
Y212500D02*
D03*
Y217500D02*
D03*
Y222500D02*
D03*
Y227500D02*
D03*
Y232500D02*
D03*
Y237500D02*
D03*
D17*
X315250Y300250D02*
D03*
X282437Y301187D02*
D03*
D18*
X355000Y279250D02*
D03*
Y249750D02*
D03*
D19*
X367500Y218500D02*
D03*
Y197488D02*
D03*
D20*
X256500Y165242D02*
D03*
Y190758D02*
D03*
D21*
X245750Y225250D02*
D03*
X224738D02*
D03*
D22*
X249250Y268000D02*
D03*
X278750D02*
D03*
D23*
X581660Y381390D02*
D03*
X29000Y40640D02*
D03*
X581660D02*
D03*
M02*
