G04*
G04 #@! TF.GenerationSoftware,Altium Limited,Altium Designer,24.6.1 (21)*
G04*
G04 Layer_Physical_Order=2*
G04 Layer_Color=16711680*
%FSLAX44Y44*%
%MOMM*%
G71*
G04*
G04 #@! TF.SameCoordinates,FB7811C6-C1BC-4142-BEB3-519EFFB23591*
G04*
G04*
G04 #@! TF.FilePolarity,Positive*
G04*
G01*
G75*
%ADD23C,1.0160*%
%ADD32R,1.5080X1.5080*%
%ADD33C,1.5080*%
%ADD34C,0.7000*%
%ADD35C,0.5000*%
G36*
X610500Y414000D02*
Y17000D01*
X601000Y7500D01*
X20250D01*
X5500Y22250D01*
Y418250D01*
X12250Y425000D01*
X599500D01*
X610500Y414000D01*
D02*
G37*
%LPC*%
G36*
X581660Y392919D02*
X578676Y392526D01*
X575896Y391374D01*
X573508Y389542D01*
X571676Y387154D01*
X570524Y384374D01*
X570131Y381390D01*
X570524Y378406D01*
X571676Y375626D01*
X573508Y373238D01*
X575896Y371406D01*
X578676Y370254D01*
X581660Y369861D01*
X584644Y370254D01*
X587424Y371406D01*
X589812Y373238D01*
X591644Y375626D01*
X592796Y378406D01*
X593189Y381390D01*
X592796Y384374D01*
X591644Y387154D01*
X589812Y389542D01*
X587424Y391374D01*
X584644Y392526D01*
X581660Y392919D01*
D02*
G37*
G36*
X511783Y388540D02*
X508217D01*
X504774Y387617D01*
X501686Y385835D01*
X499165Y383314D01*
X497383Y380226D01*
X496460Y376783D01*
Y373217D01*
X497383Y369774D01*
X499165Y366686D01*
X501686Y364165D01*
X504774Y362383D01*
X508217Y361460D01*
X511783D01*
X515226Y362383D01*
X518314Y364165D01*
X520835Y366686D01*
X522617Y369774D01*
X523540Y373217D01*
Y376783D01*
X522617Y380226D01*
X520835Y383314D01*
X518314Y385835D01*
X515226Y387617D01*
X511783Y388540D01*
D02*
G37*
G36*
X111783D02*
X108217D01*
X104774Y387617D01*
X101686Y385835D01*
X99165Y383314D01*
X97383Y380226D01*
X96460Y376783D01*
Y373217D01*
X97383Y369774D01*
X99165Y366686D01*
X101686Y364165D01*
X104774Y362383D01*
X108217Y361460D01*
X111783D01*
X115226Y362383D01*
X118314Y364165D01*
X120835Y366686D01*
X122617Y369774D01*
X123540Y373217D01*
Y376783D01*
X122617Y380226D01*
X120835Y383314D01*
X118314Y385835D01*
X115226Y387617D01*
X111783Y388540D01*
D02*
G37*
G36*
X551327Y300080D02*
X551270D01*
Y291270D01*
X560080D01*
Y291327D01*
X559393Y293891D01*
X558066Y296189D01*
X556189Y298066D01*
X553891Y299393D01*
X551327Y300080D01*
D02*
G37*
G36*
X548730D02*
X548673D01*
X546109Y299393D01*
X543811Y298066D01*
X541934Y296189D01*
X540607Y293891D01*
X539920Y291327D01*
Y291270D01*
X548730D01*
Y300080D01*
D02*
G37*
G36*
X560080Y288730D02*
X551270D01*
Y279920D01*
X551327D01*
X553891Y280607D01*
X556189Y281934D01*
X558066Y283811D01*
X559393Y286109D01*
X560080Y288673D01*
Y288730D01*
D02*
G37*
G36*
X548730D02*
X539920D01*
Y288673D01*
X540607Y286109D01*
X541934Y283811D01*
X543811Y281934D01*
X546109Y280607D01*
X548673Y279920D01*
X548730D01*
Y288730D01*
D02*
G37*
G36*
X501327Y265080D02*
X501270D01*
Y256270D01*
X510080D01*
Y256327D01*
X509393Y258891D01*
X508066Y261189D01*
X506189Y263066D01*
X503891Y264393D01*
X501327Y265080D01*
D02*
G37*
G36*
X498730D02*
X498673D01*
X496109Y264393D01*
X493811Y263066D01*
X491934Y261189D01*
X490607Y258891D01*
X489920Y256327D01*
Y256270D01*
X498730D01*
Y265080D01*
D02*
G37*
G36*
X290020Y253012D02*
Y248270D01*
X294762D01*
X293871Y250421D01*
X292171Y252120D01*
X290020Y253012D01*
D02*
G37*
G36*
X287480D02*
X285329Y252120D01*
X283629Y250421D01*
X282738Y248270D01*
X287480D01*
Y253012D01*
D02*
G37*
G36*
X510080Y253730D02*
X501270D01*
Y244920D01*
X501327D01*
X503891Y245607D01*
X506189Y246934D01*
X508066Y248811D01*
X509393Y251109D01*
X510080Y253673D01*
Y253730D01*
D02*
G37*
G36*
X498730D02*
X489920D01*
Y253673D01*
X490607Y251109D01*
X491934Y248811D01*
X493811Y246934D01*
X496109Y245607D01*
X498673Y244920D01*
X498730D01*
Y253730D01*
D02*
G37*
G36*
X294762Y245730D02*
X290020D01*
Y240988D01*
X292171Y241880D01*
X293871Y243579D01*
X294762Y245730D01*
D02*
G37*
G36*
X287480D02*
X282738D01*
X283629Y243579D01*
X285329Y241880D01*
X287480Y240988D01*
Y245730D01*
D02*
G37*
G36*
X70080Y250080D02*
X49920D01*
Y229920D01*
X70080D01*
Y250080D01*
D02*
G37*
G36*
X301020Y230929D02*
Y227270D01*
X304679D01*
X304023Y228855D01*
X302605Y230273D01*
X301020Y230929D01*
D02*
G37*
G36*
X298480D02*
X296895Y230273D01*
X295477Y228855D01*
X294821Y227270D01*
X298480D01*
Y230929D01*
D02*
G37*
G36*
X304679Y224730D02*
X301020D01*
Y221071D01*
X302605Y221727D01*
X304023Y223145D01*
X304679Y224730D01*
D02*
G37*
G36*
X298480D02*
X294821D01*
X295477Y223145D01*
X296895Y221727D01*
X298480Y221071D01*
Y224730D01*
D02*
G37*
G36*
X301020Y217179D02*
Y213520D01*
X304679D01*
X304023Y215105D01*
X302605Y216523D01*
X301020Y217179D01*
D02*
G37*
G36*
X298480D02*
X296895Y216523D01*
X295477Y215105D01*
X294821Y213520D01*
X298480D01*
Y217179D01*
D02*
G37*
G36*
X551327Y230080D02*
X548673D01*
X546109Y229393D01*
X543811Y228066D01*
X541934Y226189D01*
X540607Y223891D01*
X539920Y221327D01*
Y218673D01*
X540607Y216109D01*
X541934Y213811D01*
X543811Y211934D01*
X546109Y210607D01*
X548673Y209920D01*
X551327D01*
X553891Y210607D01*
X556189Y211934D01*
X558066Y213811D01*
X559393Y216109D01*
X560080Y218673D01*
Y221327D01*
X559393Y223891D01*
X558066Y226189D01*
X556189Y228066D01*
X553891Y229393D01*
X551327Y230080D01*
D02*
G37*
G36*
X304679Y210980D02*
X301020D01*
Y207321D01*
X302605Y207977D01*
X304023Y209395D01*
X304679Y210980D01*
D02*
G37*
G36*
X298480D02*
X294821D01*
X295477Y209395D01*
X296895Y207977D01*
X298480Y207321D01*
Y210980D01*
D02*
G37*
G36*
X61327Y215080D02*
X61270D01*
Y206270D01*
X70080D01*
Y206327D01*
X69393Y208891D01*
X68066Y211189D01*
X66189Y213066D01*
X63891Y214393D01*
X61327Y215080D01*
D02*
G37*
G36*
X58730D02*
X58673D01*
X56109Y214393D01*
X53811Y213066D01*
X51934Y211189D01*
X50607Y208891D01*
X49920Y206327D01*
Y206270D01*
X58730D01*
Y215080D01*
D02*
G37*
G36*
X211270Y208512D02*
Y203770D01*
X216012D01*
X215121Y205921D01*
X213421Y207621D01*
X211270Y208512D01*
D02*
G37*
G36*
X208730D02*
X206579Y207621D01*
X204879Y205921D01*
X203988Y203770D01*
X208730D01*
Y208512D01*
D02*
G37*
G36*
X225020Y208262D02*
Y203520D01*
X229762D01*
X228871Y205671D01*
X227171Y207370D01*
X225020Y208262D01*
D02*
G37*
G36*
X222480D02*
X220329Y207370D01*
X218629Y205671D01*
X217738Y203520D01*
X222480D01*
Y208262D01*
D02*
G37*
G36*
X394520Y203512D02*
Y198770D01*
X399262D01*
X398371Y200921D01*
X396671Y202620D01*
X394520Y203512D01*
D02*
G37*
G36*
X391980D02*
X389829Y202620D01*
X388130Y200921D01*
X387238Y198770D01*
X391980D01*
Y203512D01*
D02*
G37*
G36*
X216012Y201230D02*
X211270D01*
Y196488D01*
X213421Y197379D01*
X215121Y199079D01*
X216012Y201230D01*
D02*
G37*
G36*
X208730D02*
X203988D01*
X204879Y199079D01*
X206579Y197379D01*
X208730Y196488D01*
Y201230D01*
D02*
G37*
G36*
X229762Y200980D02*
X225020D01*
Y196238D01*
X227171Y197129D01*
X228871Y198829D01*
X229762Y200980D01*
D02*
G37*
G36*
X222480D02*
X217738D01*
X218629Y198829D01*
X220329Y197129D01*
X222480Y196238D01*
Y200980D01*
D02*
G37*
G36*
X70080Y203730D02*
X61270D01*
Y194920D01*
X61327D01*
X63891Y195607D01*
X66189Y196934D01*
X68066Y198811D01*
X69393Y201109D01*
X70080Y203673D01*
Y203730D01*
D02*
G37*
G36*
X58730D02*
X49920D01*
Y203673D01*
X50607Y201109D01*
X51934Y198811D01*
X53811Y196934D01*
X56109Y195607D01*
X58673Y194920D01*
X58730D01*
Y203730D01*
D02*
G37*
G36*
X399262Y196230D02*
X387238D01*
X388130Y194079D01*
X389829Y192379D01*
X390418Y192136D01*
Y190761D01*
X390079Y190620D01*
X388380Y188921D01*
X387488Y186770D01*
X399512D01*
X398620Y188921D01*
X396921Y190620D01*
X396332Y190864D01*
Y192239D01*
X396671Y192379D01*
X398371Y194079D01*
X399262Y196230D01*
D02*
G37*
G36*
X399512Y184230D02*
X394770D01*
Y179488D01*
X396921Y180380D01*
X398620Y182079D01*
X399512Y184230D01*
D02*
G37*
G36*
X392230D02*
X387488D01*
X388380Y182079D01*
X390079Y180380D01*
X392230Y179488D01*
Y184230D01*
D02*
G37*
G36*
X510080Y195080D02*
X489920D01*
Y174920D01*
X510080D01*
Y195080D01*
D02*
G37*
G36*
X275770Y171262D02*
Y166520D01*
X280512D01*
X279620Y168671D01*
X277921Y170371D01*
X275770Y171262D01*
D02*
G37*
G36*
X273230D02*
X271079Y170371D01*
X269380Y168671D01*
X268488Y166520D01*
X273230D01*
Y171262D01*
D02*
G37*
G36*
X280512Y163980D02*
X275770D01*
Y159238D01*
X277921Y160130D01*
X279620Y161829D01*
X280512Y163980D01*
D02*
G37*
G36*
X273230D02*
X268488D01*
X269380Y161829D01*
X271079Y160130D01*
X273230Y159238D01*
Y163980D01*
D02*
G37*
G36*
X275520Y157262D02*
Y152520D01*
X280262D01*
X279370Y154671D01*
X277671Y156370D01*
X275520Y157262D01*
D02*
G37*
G36*
X272980D02*
X270829Y156370D01*
X269130Y154671D01*
X268238Y152520D01*
X272980D01*
Y157262D01*
D02*
G37*
G36*
X280262Y149980D02*
X275520D01*
Y145238D01*
X277671Y146130D01*
X279370Y147829D01*
X280262Y149980D01*
D02*
G37*
G36*
X272980D02*
X268238D01*
X269130Y147829D01*
X270829Y146130D01*
X272980Y145238D01*
Y149980D01*
D02*
G37*
G36*
X511783Y68540D02*
X508217D01*
X504774Y67617D01*
X501686Y65835D01*
X499165Y63314D01*
X497383Y60226D01*
X496460Y56783D01*
Y53217D01*
X497383Y49774D01*
X499165Y46686D01*
X501686Y44165D01*
X504774Y42383D01*
X508217Y41460D01*
X511783D01*
X515226Y42383D01*
X518314Y44165D01*
X520835Y46686D01*
X522617Y49774D01*
X523540Y53217D01*
Y56783D01*
X522617Y60226D01*
X520835Y63314D01*
X518314Y65835D01*
X515226Y67617D01*
X511783Y68540D01*
D02*
G37*
G36*
X111783D02*
X108217D01*
X104774Y67617D01*
X101686Y65835D01*
X99165Y63314D01*
X97383Y60226D01*
X96460Y56783D01*
Y53217D01*
X97383Y49774D01*
X99165Y46686D01*
X101686Y44165D01*
X104774Y42383D01*
X108217Y41460D01*
X111783D01*
X115226Y42383D01*
X118314Y44165D01*
X120835Y46686D01*
X122617Y49774D01*
X123540Y53217D01*
Y56783D01*
X122617Y60226D01*
X120835Y63314D01*
X118314Y65835D01*
X115226Y67617D01*
X111783Y68540D01*
D02*
G37*
G36*
X581660Y52169D02*
X578676Y51776D01*
X575896Y50624D01*
X573508Y48792D01*
X571676Y46404D01*
X570524Y43624D01*
X570131Y40640D01*
X570524Y37656D01*
X571676Y34876D01*
X573508Y32488D01*
X575896Y30656D01*
X578676Y29504D01*
X581660Y29111D01*
X584644Y29504D01*
X587424Y30656D01*
X589812Y32488D01*
X591644Y34876D01*
X592796Y37656D01*
X593189Y40640D01*
X592796Y43624D01*
X591644Y46404D01*
X589812Y48792D01*
X587424Y50624D01*
X584644Y51776D01*
X581660Y52169D01*
D02*
G37*
G36*
X29000D02*
X26016Y51776D01*
X23236Y50624D01*
X20848Y48792D01*
X19016Y46404D01*
X17864Y43624D01*
X17471Y40640D01*
X17864Y37656D01*
X19016Y34876D01*
X20848Y32488D01*
X23236Y30656D01*
X26016Y29504D01*
X29000Y29111D01*
X31984Y29504D01*
X34764Y30656D01*
X37152Y32488D01*
X38984Y34876D01*
X40136Y37656D01*
X40529Y40640D01*
X40136Y43624D01*
X38984Y46404D01*
X37152Y48792D01*
X34764Y50624D01*
X31984Y51776D01*
X29000Y52169D01*
D02*
G37*
%LPD*%
D23*
X581660Y381390D02*
D03*
Y40640D02*
D03*
X29000D02*
D03*
D32*
X500000Y185000D02*
D03*
X60000Y240000D02*
D03*
D33*
X550000Y220000D02*
D03*
X500000Y255000D02*
D03*
X550000Y290000D02*
D03*
X60000Y205000D02*
D03*
D34*
X274250Y151250D02*
D03*
X288750Y247000D02*
D03*
X210000Y202500D02*
D03*
X223750Y202250D02*
D03*
X274500Y165250D02*
D03*
X393250Y197500D02*
D03*
X393500Y185500D02*
D03*
D35*
X299750Y212250D02*
D03*
Y226000D02*
D03*
M02*
