G04*
G04 #@! TF.GenerationSoftware,Altium Limited,Altium Designer,24.6.1 (21)*
G04*
G04 Layer_Color=128*
%FSLAX44Y44*%
%MOMM*%
G71*
G04*
G04 #@! TF.SameCoordinates,FB7811C6-C1BC-4142-BEB3-519EFFB23591*
G04*
G04*
G04 #@! TF.FilePolarity,Positive*
G04*
G01*
G75*
%ADD11C,0.1270*%
D11*
X495000Y185000D02*
X505000D01*
X500000Y180000D02*
Y190000D01*
X545000Y220000D02*
X555000D01*
X550000Y215000D02*
Y225000D01*
X495000Y255000D02*
X505000D01*
X500000Y250000D02*
Y260000D01*
X545000Y290000D02*
X555000D01*
X550000Y285000D02*
Y295000D01*
X55000Y240000D02*
X65000D01*
X60000Y235000D02*
Y245000D01*
X55000Y205000D02*
X65000D01*
X60000Y200000D02*
Y210000D01*
X499000Y375000D02*
X521000D01*
X510000Y364000D02*
Y386000D01*
X99000Y55000D02*
X121000D01*
X110000Y44000D02*
Y66000D01*
X499000Y55000D02*
X521000D01*
X510000Y44000D02*
Y66000D01*
X99000Y375000D02*
X121000D01*
X110000Y364000D02*
Y386000D01*
X272250Y151250D02*
X276250D01*
X274250Y149250D02*
Y153250D01*
X286750Y247000D02*
X290750D01*
X288750Y245000D02*
Y249000D01*
X208000Y202500D02*
X212000D01*
X210000Y200500D02*
Y204500D01*
X298250Y212250D02*
X301250D01*
X299750Y210750D02*
Y213750D01*
X298250Y226000D02*
X301250D01*
X299750Y224500D02*
Y227500D01*
X221750Y202250D02*
X225750D01*
X223750Y200250D02*
Y204250D01*
X272500Y165250D02*
X276500D01*
X274500Y163250D02*
Y167250D01*
X391250Y197500D02*
X395250D01*
X393250Y195500D02*
Y199500D01*
X391500Y185500D02*
X395500D01*
X393500Y183500D02*
Y187500D01*
M02*
